<svg width="45" height="45" viewBox="0 0 45 45" fill="none" xmlns="http://www.w3.org/2000/svg">
<g id="Frame 2608168">
<g id="Petals">
<g id="Group 72">
<path id="Rectangle 130" d="M16.8988 13.7498C11.7466 8.73683 15.2956 0 22.4842 0C29.6727 0 33.2218 8.73684 28.0695 13.7498L22.4842 19.1842L16.8988 13.7498Z" fill="#CBEA7B"/>
<path id="Rectangle 131" d="M16.9313 31.2502C11.7791 36.2632 15.3281 45 22.5166 45C29.7052 45 33.2542 36.2632 28.102 31.2502L22.5166 25.8158L16.9313 31.2502Z" fill="#CBEA7B"/>
</g>
<g id="Group 73">
<path id="Rectangle 130_2" d="M13.7498 28.1012C8.73683 33.2534 0 29.7044 0 22.5158C0 15.3273 8.73684 11.7782 13.7498 16.9305L19.1842 22.5158L13.7498 28.1012Z" fill="#CBEA7B"/>
<path id="Rectangle 131_2" d="M31.2502 28.0687C36.2632 33.2209 45 29.6719 45 22.4834C45 15.2948 36.2632 11.7458 31.2502 16.898L25.8158 22.4834L31.2502 28.0687Z" fill="#CBEA7B"/>
</g>
</g>
</g>
</svg>
