<svg width="142" height="18" viewBox="0 0 142 18" fill="none" xmlns="http://www.w3.org/2000/svg">
<g id="Nutritionist">
<path d="M12.9986 12.9426V1.62507H16.4186V17.3751H11.4911L4.58363 6.08007H4.20113V17.3751H0.781128V1.62507H5.39363V1.64757H5.70863L12.5936 12.9426H12.9986Z" fill="white"/>
<path d="M28.8611 4.75257H32.2811V17.3751H28.8611V15.5301H28.7036C27.8936 16.6551 26.7461 17.3751 24.4736 17.3751C19.1411 17.3751 19.0061 12.9201 19.0061 11.0751V4.75257H22.4036V11.0751C22.4036 12.0651 22.1786 14.4501 25.4636 14.4501C28.4111 14.4501 28.8611 12.5601 28.8611 10.8501V4.75257Z" fill="white"/>
<path d="M39.5261 7.67757V12.1551V12.4251C39.5261 14.2476 40.3361 14.0001 43.6211 13.8201V17.1501C43.6211 17.1501 42.9461 17.3751 39.5261 17.3751C36.0836 17.3751 36.0836 14.5626 36.0836 12.7401V7.67757H34.4186V4.79757H36.0836V1.15257H39.5261V4.79757H43.6211V7.67757H39.5261Z" fill="white"/>
<path d="M53.2539 4.75257C54.1539 4.75257 54.8964 4.95507 55.4814 5.09007L54.9414 8.30757C54.6264 8.21757 53.7489 8.03757 52.6689 8.03757C50.1264 8.03757 49.3839 10.0176 49.3839 11.7276V17.3751H45.9639V4.75257H49.3839V6.62007H49.5864C50.3064 5.40507 51.0714 4.75257 53.2539 4.75257Z" fill="white"/>
<path d="M60.709 17.3751H57.3115V4.84257H60.709V17.3751ZM60.709 3.94257H57.3115V0.882568H60.709V3.94257Z" fill="white"/>
<path d="M68.1635 7.67757V12.1551V12.4251C68.1635 14.2476 68.9735 14.0001 72.2585 13.8201V17.1501C72.2585 17.1501 71.5835 17.3751 68.1635 17.3751C64.721 17.3751 64.721 14.5626 64.721 12.7401V7.67757H63.056V4.79757H64.721V1.15257H68.1635V4.79757H72.2585V7.67757H68.1635Z" fill="white"/>
<path d="M77.9329 17.3751H74.5354V4.84257H77.9329V17.3751ZM77.9329 3.94257H74.5354V0.882568H77.9329V3.94257Z" fill="white"/>
<path d="M87.3 4.52757C91.1475 4.52757 94.3425 6.57507 94.3425 10.9626C94.3425 15.3951 91.1475 17.3751 87.3 17.3751C83.475 17.3751 80.28 15.3276 80.28 10.9626C80.28 6.62007 83.475 4.52757 87.3 4.52757ZM87.3 14.2701C89.46 14.2701 90.99 13.2351 90.99 10.9626C90.99 8.62257 89.46 7.65507 87.3 7.65507C85.1625 7.65507 83.6325 8.57757 83.6325 10.9626C83.6325 13.3251 85.1625 14.2701 87.3 14.2701Z" fill="white"/>
<path d="M104.445 4.75257C109.777 4.75257 109.912 9.23007 109.912 11.0751V17.3751H106.515V11.0751C106.515 10.0851 106.717 7.70007 103.455 7.70007C100.485 7.70007 100.057 9.59007 100.057 11.3001V17.3751H96.6373V4.75257H100.057V6.62007H100.215C101.025 5.49507 102.172 4.75257 104.445 4.75257Z" fill="white"/>
<path d="M115.887 17.3751H112.489V4.84257H115.887V17.3751ZM115.887 3.94257H112.489V0.882568H115.887V3.94257Z" fill="white"/>
<path d="M124.719 9.72507C127.577 10.1526 130.817 10.6476 130.817 13.6401C130.817 16.7676 128.567 17.3751 124.697 17.3751C121.839 17.3751 119.882 16.8576 118.869 15.8451C117.992 14.9676 117.992 13.9101 118.014 13.2576V13.0101H121.524V13.1226C121.524 14.2026 122.334 14.6976 124.607 14.6976C125.979 14.6976 127.284 14.5176 127.284 13.6851C127.284 12.7401 126.069 12.5601 124.697 12.4026C124.517 12.3801 124.337 12.3576 124.157 12.3351C120.534 11.8626 118.284 11.0526 118.284 8.53257C118.284 6.77757 119.297 4.68507 124.157 4.68507C129.377 4.68507 130.479 7.00257 130.479 8.93757V9.05007H126.992V8.93757C126.992 7.94757 126.137 7.40757 124.157 7.40757C122.244 7.40757 121.839 8.10507 121.839 8.48757C121.839 9.05007 122.222 9.36507 124.427 9.70257L124.719 9.72507Z" fill="white"/>
<path d="M137.501 7.67757V12.1551V12.4251C137.501 14.2476 138.311 14.0001 141.596 13.8201V17.1501C141.596 17.1501 140.921 17.3751 137.501 17.3751C134.059 17.3751 134.059 14.5626 134.059 12.7401V7.67757H132.394V4.79757H134.059V1.15257H137.501V4.79757H141.596V7.67757H137.501Z" fill="white"/>
</g>
</svg>
